Coordinates
version=1
nRows=12
nColumns=24
inDegrees=yes

Units are S.I. units (second, meters, Newtons, ...)
Angles are in degrees.

endheader
time	pelvis_tilt	pelvis_list	pelvis_rotation	pelvis_tx	pelvis_ty	pelvis_tz	hip_flexion_r	hip_adduction_r	hip_rotation_r	knee_angle_r	ankle_angle_r	subtalar_angle_r	mtp_angle_r	hip_flexion_l	hip_adduction_l	hip_rotation_l	knee_angle_l	ankle_angle_l	subtalar_angle_l	mtp_angle_l	lumbar_extension	lumbar_bending	lumbar_rotation
      3.95500000	    -10.80526798	     -1.62248585	     -5.04138586	     -1.19426460	     -0.00502367	     -0.65673002	      3.95649216	      4.88738493	     -5.24030588	     -6.49890355	      5.42388163	     -5.23456718	      5.56532592	     36.02747736	     -7.62564415	    -18.76331143	    -48.33596600	     -1.98596502	    -13.09237873	      3.95173811	      6.80902976	      4.42615963	      0.70026733
      3.96000000	    -10.93677714	     -1.59758976	     -5.02852579	     -1.18856640	     -0.00572810	     -0.65666251	      3.65265611	      4.85014211	     -5.44179423	     -6.36663146	      5.63062594	     -5.03731892	      5.87637508	     36.36564321	     -7.51501915	    -19.01672129	    -46.67522960	     -1.32042793	    -12.72022687	      2.44327836	      6.85872272	      4.36322778	      0.75379017
      3.96500000	    -11.14680379	     -1.58908256	     -5.08460388	     -1.18292575	     -0.00651769	     -0.65648707	      3.44445923	      4.85252974	     -5.44722035	     -6.25907627	      5.79038343	     -4.98648458	      5.90286548	     36.73143196	     -7.47699787	    -19.31905174	    -44.87450005	     -1.06521181	    -12.47656867	      2.38317570	      6.97613551	      4.33487298	      0.87436414
      3.97000000	    -11.27686427	     -1.57285475	     -5.22112141	     -1.17724280	     -0.00722496	     -0.65623019	      3.16168521	      4.83564385	     -5.46373236	     -6.17814932	      6.00116937	     -4.73533136	      5.96309384	     36.93706487	     -7.47787215	    -19.75375562	    -42.99110970	     -0.75367929	    -12.11298480	      2.22445954	      7.00803596	      4.30148928	      1.12645092
      3.97500000	    -11.41819264	     -1.56756355	     -5.27734861	     -1.17152180	     -0.00798255	     -0.65612279	      2.88174145	      4.81865924	     -5.54158375	     -6.08820876	      6.19773396	     -4.51147857	      6.02481102	     37.13313590	     -7.41910751	    -20.11460098	    -41.03874985	     -0.46453401	    -11.66227441	      2.07734748	      7.05721722	      4.27348716	      1.26424084
      3.98000000	    -11.55893912	     -1.57451530	     -5.33099150	     -1.16578404	     -0.00874968	     -0.65604304	      2.60584030	      4.80838049	     -5.64178636	     -6.01065798	      6.37674367	     -4.24708082	      6.10040578	     37.28697286	     -7.36108174	    -20.49438085	    -39.02141834	     -0.19585812	    -11.10530507	      1.96775730	      7.10429117	      4.25853215	      1.39961449
      3.98500000	    -11.70393543	     -1.59006010	     -5.36600148	     -1.16001581	     -0.00954551	     -0.65602237	      2.33589490	      4.80014499	     -5.75657181	     -5.94247833	      6.54618440	     -3.96990709	      6.18486948	     37.40869416	     -7.28740616	    -20.87817583	    -36.94709497	      0.05142901	    -10.44549224	      1.93877161	      7.15562401	      4.25280837	      1.50815531
      3.99000000	    -11.83337226	     -1.61328993	     -5.39780788	     -1.15420440	     -0.01034094	     -0.65598522	      2.05070046	      4.79663480	     -5.90313633	     -5.88358510	      6.71281396	     -3.65480191	      6.28384567	     37.47396763	     -7.21216727	    -21.27980004	    -34.82516170	      0.27537313	     -9.66613698	      2.01654359	      7.20415425	      4.24155529	      1.62168649
      3.99500000	    -11.96640966	     -1.64263593	     -5.41916950	     -1.14834791	     -0.01116264	     -0.65602643	      1.76811912	      4.79092722	     -6.05249092	     -5.82875653	      6.86643513	     -3.32598567	      6.38544625	     37.51343784	     -7.12245702	    -21.69321703	    -32.67288107	      0.48125002	     -8.79061824	      2.22197112	      7.25338004	      4.24136248	      1.70238238
      4.00000000	    -12.05860250	     -1.67317436	     -5.44286394	     -1.14244984	     -0.01197012	     -0.65607485	      1.45494407	      4.77801036	     -6.24321553	     -5.80708946	      7.03671612	     -2.94784768	      6.51553442	     37.47481046	     -7.02027277	    -22.11034187	    -30.49459363	      0.68107611	     -7.81277408	      2.63465894	      7.26447314	      4.23468320	      1.82999947
      4.00500000	    -12.15164191	     -1.70048606	     -5.45303930	     -1.13647661	     -0.01278796	     -0.65620118	      1.13274433	      4.75139045	     -6.41879999	     -5.77467674	      7.18621989	     -2.55088659	      6.64326852	     37.41866381	     -6.90108615	    -22.56871923	    -28.31850001	      0.83451224	     -6.76265413	      3.21077300	      7.28579121	      4.23298883	      1.91238074
      4.01000000	    -12.11677217	     -1.65857414	     -5.44862587	     -1.13037354	     -0.01343902	     -0.65637931	      0.66350804	      4.62106177	     -6.65007624	     -5.72383454	      7.36091219	     -2.00418204	      6.98778343	     37.14787479	     -6.65563448	    -22.98655555	    -25.99282430	      0.55483716	     -5.99142246	      5.00890495	      7.19487099	      4.14257259	      1.95081296
